<mxfile host="65bd71144e">
    <diagram id="EJo5ABZA-lnuUx32Gu-C" name="Page-1">
        <mxGraphModel dx="1980" dy="779" grid="1" gridSize="10" guides="1" tooltips="1" connect="1" arrows="1" fold="1" page="1" pageScale="1" pageWidth="850" pageHeight="1100" math="0" shadow="0">
            <root>
                <mxCell id="0"/>
                <mxCell id="1" parent="0"/>
                <mxCell id="3" value="" style="rounded=0;whiteSpace=wrap;html=1;rotation=90;fillColor=#94ACC8;fontColor=#ffffff;strokeColor=#006EAF;gradientColor=none;dashed=1;shadow=0;glass=0;perimeterSpacing=0;" parent="1" vertex="1">
                    <mxGeometry x="-263.12" y="188.13" width="536.25" height="380" as="geometry"/>
                </mxCell>
                <mxCell id="4" value="" style="rounded=0;whiteSpace=wrap;html=1;rotation=90;fillColor=#008a00;fontColor=#ffffff;strokeColor=#005700;dashed=1;" parent="1" vertex="1">
                    <mxGeometry x="114.07" y="184.07" width="536.88" height="388.13" as="geometry"/>
                </mxCell>
                <mxCell id="5" value="" style="rounded=0;whiteSpace=wrap;html=1;rotation=90;fillColor=#f0a30a;fontColor=#000000;strokeColor=#BD7000;" parent="1" vertex="1">
                    <mxGeometry x="540" y="142.5" width="275" height="210" as="geometry"/>
                </mxCell>
                <mxCell id="6" value="&lt;font color=&quot;#000000&quot; style=&quot;font-size: 18px;&quot;&gt;&lt;b&gt;Preprocessing&lt;/b&gt;&lt;/font&gt;" style="text;html=1;strokeColor=none;fillColor=none;align=center;verticalAlign=middle;whiteSpace=wrap;rounded=0;" parent="1" vertex="1">
                    <mxGeometry x="-25" y="110" width="60" height="30" as="geometry"/>
                </mxCell>
                <mxCell id="7" value="&lt;font style=&quot;font-size: 18px;&quot;&gt;&lt;b&gt;Modelling&lt;/b&gt;&lt;/font&gt;" style="text;html=1;strokeColor=none;fillColor=none;align=center;verticalAlign=middle;whiteSpace=wrap;rounded=0;" parent="1" vertex="1">
                    <mxGeometry x="368.44" y="110" width="60" height="30" as="geometry"/>
                </mxCell>
                <mxCell id="9" value="&lt;font style=&quot;font-size: 18px;&quot;&gt;&lt;b&gt;Evaluation&lt;/b&gt;&lt;/font&gt;" style="text;html=1;strokeColor=none;fillColor=none;align=center;verticalAlign=middle;whiteSpace=wrap;rounded=0;" parent="1" vertex="1">
                    <mxGeometry x="647.5" y="110" width="60" height="30" as="geometry"/>
                </mxCell>
                <mxCell id="10" value="" style="rounded=0;whiteSpace=wrap;html=1;rotation=90;fillColor=#fad9d5;strokeColor=#ae4132;" parent="1" vertex="1">
                    <mxGeometry x="547.5" y="410" width="260" height="210" as="geometry"/>
                </mxCell>
                <mxCell id="11" value="&lt;font color=&quot;#030303&quot; style=&quot;font-size: 18px;&quot;&gt;&lt;b style=&quot;&quot;&gt;Deployment&lt;/b&gt;&lt;/font&gt;" style="text;html=1;strokeColor=none;fillColor=none;align=center;verticalAlign=middle;whiteSpace=wrap;rounded=0;" parent="1" vertex="1">
                    <mxGeometry x="647.5" y="610" width="60" height="30" as="geometry"/>
                </mxCell>
                <mxCell id="12" value="&lt;font style=&quot;font-size: 14px;&quot;&gt;&lt;b&gt;.CSV&lt;/b&gt;&lt;/font&gt;" style="shape=cylinder;whiteSpace=wrap;html=1;boundedLbl=1;backgroundOutline=1;fontSize=18;fillColor=#0050ef;fontColor=#ffffff;strokeColor=#001DBC;" parent="1" vertex="1">
                    <mxGeometry x="-25" y="140" width="60" height="80" as="geometry"/>
                </mxCell>
                <mxCell id="14" value="" style="rounded=0;whiteSpace=wrap;html=1;fontSize=14;fillColor=#0050ef;fontColor=#ffffff;strokeColor=#001DBC;" parent="1" vertex="1">
                    <mxGeometry x="-117.5" y="345" width="245" height="190" as="geometry"/>
                </mxCell>
                <mxCell id="13" value="&lt;font style=&quot;font-size: 11px;&quot;&gt;Removing Special &lt;br&gt;Characters &amp;amp; Digits&lt;/font&gt;" style="html=1;dashed=0;whitespace=wrap;fontSize=14;" parent="1" vertex="1">
                    <mxGeometry x="-112.5" y="355" width="110" height="50" as="geometry"/>
                </mxCell>
                <mxCell id="16" value="&lt;font style=&quot;font-size: 11px;&quot;&gt;Removing Double, &lt;br&gt;Leading and Trailing &lt;br&gt;Whitespaces&lt;/font&gt;" style="html=1;dashed=0;whitespace=wrap;fontSize=14;" parent="1" vertex="1">
                    <mxGeometry x="7.5" y="355" width="110" height="50" as="geometry"/>
                </mxCell>
                <mxCell id="17" value="&lt;span style=&quot;font-size: 11px;&quot;&gt;Setting Characters to&lt;br&gt;Lowercase&lt;br&gt;&lt;/span&gt;" style="html=1;dashed=0;whitespace=wrap;fontSize=14;" parent="1" vertex="1">
                    <mxGeometry x="-112.5" y="415" width="110" height="50" as="geometry"/>
                </mxCell>
                <mxCell id="19" value="&lt;span style=&quot;font-size: 11px;&quot;&gt;Removing&lt;br&gt;Punctuation&lt;br&gt;&lt;/span&gt;" style="html=1;dashed=0;whitespace=wrap;fontSize=14;" parent="1" vertex="1">
                    <mxGeometry x="7.5" y="415" width="110" height="50" as="geometry"/>
                </mxCell>
                <mxCell id="20" value="&lt;span style=&quot;font-size: 11px;&quot;&gt;Removing&lt;br&gt;Stopwords&lt;br&gt;&lt;/span&gt;" style="html=1;dashed=0;whitespace=wrap;fontSize=14;" parent="1" vertex="1">
                    <mxGeometry x="-112.5" y="475" width="110" height="50" as="geometry"/>
                </mxCell>
                <mxCell id="22" value="&lt;span style=&quot;font-size: 11px;&quot;&gt;Perform Stemming&lt;br&gt;&lt;/span&gt;" style="html=1;dashed=0;whitespace=wrap;fontSize=14;" parent="1" vertex="1">
                    <mxGeometry x="7.5" y="475" width="110" height="50" as="geometry"/>
                </mxCell>
                <mxCell id="23" value="&lt;b&gt;EDA&lt;/b&gt;" style="rounded=0;whiteSpace=wrap;html=1;fontSize=14;fillColor=#0050ef;fontColor=#ffffff;strokeColor=#001DBC;" parent="1" vertex="1">
                    <mxGeometry x="-52.5" y="250" width="115" height="60" as="geometry"/>
                </mxCell>
                <mxCell id="24" value="&lt;b&gt;Stratified Train/Val/Test Split&lt;/b&gt;" style="rounded=0;whiteSpace=wrap;html=1;fontSize=14;fillColor=#0050ef;fontColor=#ffffff;strokeColor=#001DBC;" parent="1" vertex="1">
                    <mxGeometry x="-52.5" y="570" width="115" height="60" as="geometry"/>
                </mxCell>
                <mxCell id="26" value="" style="endArrow=classic;html=1;fontSize=11;fontColor=#000000;exitX=0.5;exitY=1;exitDx=0;exitDy=0;entryX=0.5;entryY=0;entryDx=0;entryDy=0;strokeWidth=3;" parent="1" source="12" target="23" edge="1">
                    <mxGeometry width="50" height="50" relative="1" as="geometry">
                        <mxPoint x="-240" y="400" as="sourcePoint"/>
                        <mxPoint x="-190" y="350" as="targetPoint"/>
                    </mxGeometry>
                </mxCell>
                <mxCell id="28" value="" style="endArrow=classic;html=1;fontSize=11;fontColor=#000000;exitX=0.5;exitY=1;exitDx=0;exitDy=0;entryX=0.5;entryY=0;entryDx=0;entryDy=0;strokeWidth=3;" parent="1" source="23" target="14" edge="1">
                    <mxGeometry width="50" height="50" relative="1" as="geometry">
                        <mxPoint x="15" y="230" as="sourcePoint"/>
                        <mxPoint x="15" y="260" as="targetPoint"/>
                    </mxGeometry>
                </mxCell>
                <mxCell id="29" value="" style="endArrow=classic;html=1;fontSize=11;fontColor=#000000;exitX=0.5;exitY=1;exitDx=0;exitDy=0;entryX=0.5;entryY=0;entryDx=0;entryDy=0;strokeWidth=3;" parent="1" source="14" target="24" edge="1">
                    <mxGeometry width="50" height="50" relative="1" as="geometry">
                        <mxPoint x="15" y="320" as="sourcePoint"/>
                        <mxPoint x="15" y="355" as="targetPoint"/>
                    </mxGeometry>
                </mxCell>
                <mxCell id="31" value="" style="rounded=0;whiteSpace=wrap;html=1;fontSize=14;fillColor=#60a917;fontColor=#ffffff;strokeColor=#2D7600;" parent="1" vertex="1">
                    <mxGeometry x="230" y="290" width="147.5" height="235" as="geometry"/>
                </mxCell>
                <mxCell id="33" value="&lt;span style=&quot;font-size: 11px;&quot;&gt;Tokenize using&lt;br&gt;Pretrained DistilBERT&lt;br&gt;&lt;/span&gt;" style="html=1;dashed=0;whitespace=wrap;fontSize=14;" parent="1" vertex="1">
                    <mxGeometry x="248.75" y="465" width="110" height="50" as="geometry"/>
                </mxCell>
                <mxCell id="34" value="&lt;span style=&quot;font-size: 11px;&quot;&gt;Training DistilBERT&lt;br&gt;on Train and&lt;br&gt;Validation data&lt;br&gt;&lt;/span&gt;" style="html=1;dashed=0;whitespace=wrap;fontSize=14;" parent="1" vertex="1">
                    <mxGeometry x="248.75" y="400" width="110" height="50" as="geometry"/>
                </mxCell>
                <mxCell id="35" value="&lt;span style=&quot;font-size: 11px;&quot;&gt;Export the&amp;nbsp;&lt;br&gt;Trained Model and&lt;br&gt;Tokenizer&lt;br&gt;&lt;/span&gt;" style="html=1;dashed=0;whitespace=wrap;fontSize=14;" parent="1" vertex="1">
                    <mxGeometry x="248.75" y="335" width="110" height="50" as="geometry"/>
                </mxCell>
                <mxCell id="36" value="&lt;font size=&quot;1&quot; style=&quot;&quot;&gt;&lt;b style=&quot;font-size: 14px;&quot;&gt;DistilBERT&lt;/b&gt;&lt;/font&gt;" style="text;html=1;strokeColor=none;fillColor=none;align=center;verticalAlign=middle;whiteSpace=wrap;rounded=0;" parent="1" vertex="1">
                    <mxGeometry x="273.13" y="300" width="60" height="30" as="geometry"/>
                </mxCell>
                <mxCell id="38" value="" style="rounded=0;whiteSpace=wrap;html=1;fontSize=14;fillColor=#60a917;fontColor=#ffffff;strokeColor=#2D7600;" parent="1" vertex="1">
                    <mxGeometry x="390" y="290" width="147.5" height="237.5" as="geometry"/>
                </mxCell>
                <mxCell id="39" value="&lt;span style=&quot;font-size: 11px;&quot;&gt;Tokenize using&lt;br&gt;Pretrained RoBERTa&lt;br&gt;&lt;/span&gt;" style="html=1;dashed=0;whitespace=wrap;fontSize=14;" parent="1" vertex="1">
                    <mxGeometry x="408.75" y="465" width="110" height="50" as="geometry"/>
                </mxCell>
                <mxCell id="40" value="&lt;b&gt;&lt;font color=&quot;#f9f5f5&quot;&gt;Choose best model:&lt;br&gt;distilBERT&lt;/font&gt;&lt;br&gt;&lt;/b&gt;" style="rounded=0;whiteSpace=wrap;html=1;fontSize=14;fillColor=#fa6800;fontColor=#000000;strokeColor=#C73500;" vertex="1" parent="1">
                    <mxGeometry x="603.75" y="300" width="147.5" height="67.5" as="geometry"/>
                </mxCell>
                <mxCell id="41" value="&lt;b&gt;&lt;font color=&quot;#f9f5f5&quot;&gt;Compare models using Accuracy/F1&lt;/font&gt;&lt;br&gt;&lt;/b&gt;" style="rounded=0;whiteSpace=wrap;html=1;fontSize=14;fillColor=#fa6800;fontColor=#000000;strokeColor=#C73500;" vertex="1" parent="1">
                    <mxGeometry x="603.75" y="152.5" width="147.5" height="67.5" as="geometry"/>
                </mxCell>
                <mxCell id="42" value="" style="endArrow=classic;html=1;fontSize=11;fontColor=#000000;entryX=0.5;entryY=0;entryDx=0;entryDy=0;strokeWidth=3;" edge="1" parent="1" target="40">
                    <mxGeometry width="50" height="50" relative="1" as="geometry">
                        <mxPoint x="677.5" y="220" as="sourcePoint"/>
                        <mxPoint x="-17.5" y="260" as="targetPoint"/>
                    </mxGeometry>
                </mxCell>
                <mxCell id="44" value="&lt;b&gt;&lt;font color=&quot;#f9f5f5&quot;&gt;Make model available via a webpage using Flask&lt;/font&gt;&lt;br&gt;&lt;/b&gt;" style="rounded=0;whiteSpace=wrap;html=1;fontSize=14;fillColor=#76608a;fontColor=#ffffff;strokeColor=#432D57;" vertex="1" parent="1">
                    <mxGeometry x="603.75" y="420" width="147.5" height="67.5" as="geometry"/>
                </mxCell>
                <mxCell id="45" value="" style="endArrow=classic;html=1;fontSize=11;fontColor=#000000;entryX=0.5;entryY=0;entryDx=0;entryDy=0;strokeWidth=3;exitX=0.5;exitY=1;exitDx=0;exitDy=0;strokeColor=#030303;" edge="1" parent="1" source="40" target="44">
                    <mxGeometry width="50" height="50" relative="1" as="geometry">
                        <mxPoint x="687.5" y="230" as="sourcePoint"/>
                        <mxPoint x="677.5" y="405" as="targetPoint"/>
                    </mxGeometry>
                </mxCell>
                <mxCell id="47" value="&lt;span style=&quot;font-size: 11px;&quot;&gt;Training DistilBERT&lt;br&gt;on Train and&lt;br&gt;Validation data&lt;br&gt;&lt;/span&gt;" style="html=1;dashed=0;whitespace=wrap;fontSize=14;" vertex="1" parent="1">
                    <mxGeometry x="408.75" y="397.5" width="110" height="50" as="geometry"/>
                </mxCell>
                <mxCell id="48" value="&lt;span style=&quot;font-size: 11px;&quot;&gt;Export the&amp;nbsp;&lt;br&gt;Trained Model and&lt;br&gt;Tokenizer&lt;br&gt;&lt;/span&gt;" style="html=1;dashed=0;whitespace=wrap;fontSize=14;" vertex="1" parent="1">
                    <mxGeometry x="408.75" y="335" width="110" height="50" as="geometry"/>
                </mxCell>
                <mxCell id="49" value="&lt;font size=&quot;1&quot; style=&quot;&quot;&gt;&lt;b style=&quot;font-size: 14px;&quot;&gt;RoBERTa&lt;/b&gt;&lt;/font&gt;" style="text;html=1;strokeColor=none;fillColor=none;align=center;verticalAlign=middle;whiteSpace=wrap;rounded=0;" vertex="1" parent="1">
                    <mxGeometry x="433.75" y="300" width="60" height="30" as="geometry"/>
                </mxCell>
                <mxCell id="51" value="" style="endArrow=classic;html=1;fontSize=11;fontColor=#000000;exitX=1;exitY=0.5;exitDx=0;exitDy=0;entryX=0.5;entryY=1;entryDx=0;entryDy=0;strokeWidth=3;" edge="1" parent="1" source="24" target="38">
                    <mxGeometry width="50" height="50" relative="1" as="geometry">
                        <mxPoint x="15" y="545" as="sourcePoint"/>
                        <mxPoint x="15" y="580" as="targetPoint"/>
                        <Array as="points">
                            <mxPoint x="464" y="600"/>
                        </Array>
                    </mxGeometry>
                </mxCell>
                <mxCell id="52" value="" style="endArrow=classic;html=1;fontSize=11;fontColor=#000000;exitX=1;exitY=0.5;exitDx=0;exitDy=0;entryX=0.5;entryY=1;entryDx=0;entryDy=0;strokeWidth=3;" edge="1" parent="1" source="24" target="31">
                    <mxGeometry width="50" height="50" relative="1" as="geometry">
                        <mxPoint x="72.5" y="610" as="sourcePoint"/>
                        <mxPoint x="473.75" y="537.5" as="targetPoint"/>
                        <Array as="points">
                            <mxPoint x="304" y="600"/>
                        </Array>
                    </mxGeometry>
                </mxCell>
                <mxCell id="55" value="" style="endArrow=classic;html=1;fontSize=11;fontColor=#000000;exitX=0.5;exitY=0;exitDx=0;exitDy=0;entryX=0;entryY=0.5;entryDx=0;entryDy=0;strokeWidth=3;" edge="1" parent="1" source="31" target="41">
                    <mxGeometry width="50" height="50" relative="1" as="geometry">
                        <mxPoint x="72.5" y="610" as="sourcePoint"/>
                        <mxPoint x="313.75" y="535" as="targetPoint"/>
                        <Array as="points">
                            <mxPoint x="304" y="186"/>
                        </Array>
                    </mxGeometry>
                </mxCell>
                <mxCell id="56" value="" style="endArrow=classic;html=1;fontSize=11;fontColor=#000000;exitX=0.5;exitY=0;exitDx=0;exitDy=0;entryX=0;entryY=0.5;entryDx=0;entryDy=0;strokeWidth=3;" edge="1" parent="1" source="38" target="41">
                    <mxGeometry width="50" height="50" relative="1" as="geometry">
                        <mxPoint x="313.75" y="300" as="sourcePoint"/>
                        <mxPoint x="613.75" y="196.25" as="targetPoint"/>
                        <Array as="points">
                            <mxPoint x="464" y="186"/>
                        </Array>
                    </mxGeometry>
                </mxCell>
            </root>
        </mxGraphModel>
    </diagram>
</mxfile>